<svg xmlns="http://www.w3.org/2000/svg" width="11.97" height="14.983"><g fill="#211f1f"><path d="M9.211 14.982H2.759a1.7 1.7 0 01-1.688-1.712V5.186a1.706 1.706 0 01-1.072-1.59v-.088a1.7 1.7 0 011.692-1.707h2.308a2 2 0 013.981 0h2.307a1.7 1.7 0 011.688 1.712v.088a1.706 1.706 0 01-1.076 1.585v8.084a1.7 1.7 0 01-1.688 1.712zM1.87 5.308v7.962a.9.9 0 00.889.9h6.452a.9.9 0 00.889-.9V5.308zm-.179-2.7a.9.9 0 00-.892.9v.088a.9.9 0 00.892.9h8.591a.894.894 0 00.888-.9v-.088a.9.9 0 00-.888-.9zM5.986.814a1.21 1.21 0 00-1.181.987h2.36A1.208 1.208 0 005.986.814z"/><path d="M3.834 13.134a.4.4 0 00.4-.406v-4.57a.4.4 0 00-.4-.406.4.4 0 00-.4.406v4.57a.4.4 0 00.4.406zm2.15 0a.4.4 0 00.4-.406v-4.57a.4.4 0 00-.4-.406.4.4 0 00-.4.406v4.57a.4.4 0 00.4.406zm2.151 0a.4.4 0 00.4-.406v-4.57a.4.4 0 00-.4-.406.4.4 0 00-.4.406v4.57a.4.4 0 00.4.406z"/></g></svg>